<svg width="16" height="16" viewBox="0 0 16 16" fill="none" xmlns="http://www.w3.org/2000/svg">
<path d="M10.1214 9.31021H11.0256C11.1682 9.31021 11.2837 9.19466 11.2837 9.05208C11.2837 8.9095 11.1682 8.79395 11.0256 8.79395H10.1214C9.97884 8.79395 9.86328 8.9095 9.86328 9.05208C9.86346 9.19466 9.97884 9.31021 10.1214 9.31021Z" fill="#F43838" stroke="#F43838" stroke-width="0.1"/>
<path d="M15.7419 13.339L15.7493 13.3383L15.7774 13.3355L15.8011 13.3315L15.8238 13.3244L15.8501 13.3145L15.8571 13.3118L15.8699 13.3036L15.8935 13.2887L15.9124 13.2731L15.9305 13.2556L15.9465 13.2363L15.9607 13.216L15.9723 13.1945L15.9826 13.1712L15.9899 13.1477L15.9954 13.1234L15.9982 13.096L16 13.0809L15.9993 13.0732L15.9964 13.0457L15.9925 13.0217L15.9856 12.9993L15.9755 12.9726L15.9728 12.9657L14.1488 9.31092H14.4533L14.4629 9.31003L14.4907 9.30719L14.5147 9.30274L14.538 9.29545L14.5639 9.28514L14.5728 9.28159L14.584 9.2743L14.6071 9.25901L14.626 9.24354L14.6436 9.22594L14.6596 9.20639L14.6732 9.18612L14.685 9.16443L14.6948 9.14132L14.7022 9.1175L14.7072 9.09368L14.71 9.06612L14.7115 9.05279L14.7106 9.04319L14.7077 9.01545L14.7035 8.99163L14.6962 8.96834L14.6859 8.94257L14.6823 8.9335L12.8706 5.4615H13.1532L13.1628 5.46061L13.1895 5.45794L13.2155 5.45332L13.2357 5.4471L13.2652 5.43536L13.2724 5.43252L13.2812 5.42665L13.309 5.40834L13.323 5.39679L13.3458 5.37421L13.357 5.36052L13.3753 5.33332L13.3829 5.31928L13.3963 5.28781L13.4009 5.27323L13.408 5.24016L13.4098 5.22257L13.4117 5.20354L13.4103 5.18985L13.4085 5.17208L13.4025 5.13848L13.398 5.12425L13.3842 5.08977L13.3819 5.08408L10.84 0.211009C10.8258 0.135987 10.7797 0.0677204 10.7068 0.029676C10.6665 0.00869822 10.6231 0.000520442 10.5806 0.00158711C10.5381 0.000342664 10.4948 0.00852044 10.4544 0.029676C10.3813 0.0677204 10.3353 0.135987 10.3212 0.211009L7.77991 5.08425L7.7776 5.09012L7.76391 5.12425L7.75947 5.13865L7.75342 5.17172L7.75164 5.19003L7.75022 5.20354L7.75218 5.22221L7.75396 5.24016L7.76089 5.27288L7.76551 5.28799L7.77867 5.3191L7.78649 5.3335L7.80462 5.36034L7.81618 5.37439L7.83858 5.39661L7.8528 5.40834L7.88053 5.42648L7.88942 5.43234L7.89653 5.43519L7.92604 5.44692L7.94631 5.45314L7.97227 5.45794L7.99876 5.46061L8.00836 5.4615H8.29102L6.47929 8.9335L6.47573 8.94257L6.46542 8.96834L6.45813 8.99163L6.45369 9.01545L6.45084 9.04319L6.44996 9.05279L6.45138 9.06612L6.45404 9.09368L6.4592 9.1175L6.46667 9.14132L6.47644 9.16443L6.48818 9.18612L6.50187 9.20639L6.51804 9.22594L6.53564 9.24337L6.55449 9.25901L6.5776 9.2743L6.58862 9.28159L6.59751 9.28514L6.62364 9.29563L6.64676 9.30274L6.67093 9.30719L6.69849 9.31003L6.70809 9.31092H7.01244L5.18844 12.9657L5.18578 12.9726L5.17582 12.9989L5.16871 13.0219L5.1648 13.0455L5.16196 13.0736L5.16124 13.0811L5.16284 13.0962L5.16569 13.1241L5.1712 13.1479L5.17867 13.1717L5.1888 13.1947L5.20071 13.2165L5.21476 13.2364L5.23093 13.256L5.24889 13.2731L5.26791 13.2887L5.29138 13.3036L5.30436 13.3118L5.31129 13.3145L5.3376 13.3244L5.36053 13.3315L5.38418 13.3355L5.41227 13.3383L5.41973 13.339H10.3161V15.4841H2.07236V12.3392H3.3136C3.45618 12.3392 3.57173 12.2236 3.57173 12.0811C3.57173 11.9385 3.45618 11.8229 3.3136 11.8229H0.258133C0.115556 11.8231 0 11.9387 0 12.0811C0 12.2235 0.115556 12.3392 0.258133 12.3392H1.55609V15.4841H0.258133C0.115556 15.4841 0 15.5996 0 15.7422C0 15.8848 0.115556 16.0003 0.258133 16.0003H16.7419C16.8844 16.0003 17 15.8848 17 15.7422C17 15.5996 16.8844 15.4841 16.7419 15.4841H10.8318V13.339H15.7419ZM8.24871 9.31092C8.39129 9.31092 8.50667 9.19537 8.50667 9.05279C8.50667 8.91021 8.39111 8.79465 8.24871 8.79465H7.42951H7.13369L8.87307 5.46132H9.43236C9.57493 5.46132 9.69031 5.34576 9.69031 5.20319C9.69031 5.06061 9.57476 4.94505 9.43236 4.94505H8.71662H8.43431L10.5806 0.829676L12.7269 4.94541H12.4444H11.7287C11.5861 4.94541 11.4706 5.06097 11.4706 5.20354C11.4706 5.34612 11.5861 5.46168 11.7287 5.46168H12.288L14.0274 8.79501H13.7316H12.9124C12.7698 8.79501 12.6542 8.91056 12.6542 9.05314C12.6542 9.19572 12.7698 9.31128 12.9124 9.31128H13.5719L15.3244 12.8233H10.5874L10.5806 12.824L10.5739 12.8233H5.83662L7.58916 9.31128L8.24871 9.31092Z" fill="#F43838" stroke="#F43838" stroke-width="0.2"/>
</svg>
