<svg width="16" height="14" viewBox="0 0 16 14" fill="none" xmlns="http://www.w3.org/2000/svg">
<mask id="path-1-inside-1" fill="white">
<path d="M15.75 0.521484H12.7392C12.6011 0.521484 12.4892 0.633309 12.4892 0.771484V3.89843H9.63133C9.49315 3.89843 9.38133 4.01026 9.38133 4.14843V6.72413H6.4624C6.3242 6.72413 6.2124 6.83593 6.2124 6.97413V9.95386H3.41527C3.2771 9.95386 3.16527 10.0657 3.16527 10.2039V12.9785H0.25C0.1118 12.9785 0 13.0903 0 13.2285C0 13.3667 0.1118 13.4785 0.25 13.4785H3.41527C3.55345 13.4785 3.66527 13.3667 3.66527 13.2285V10.4539H6.4624C6.60058 10.4539 6.7124 10.3421 6.7124 10.2039V7.22413H9.63133C9.76952 7.22413 9.88133 7.11231 9.88133 6.97413V4.39843H12.7392C12.8774 4.39843 12.9892 4.28663 12.9892 4.14843V1.02148H15.75C15.8882 1.02148 16 0.909684 16 0.771484C16 0.633309 15.8882 0.521484 15.75 0.521484Z"/>
</mask>
<path d="M15.75 0.521484H12.7392C12.6011 0.521484 12.4892 0.633309 12.4892 0.771484V3.89843H9.63133C9.49315 3.89843 9.38133 4.01026 9.38133 4.14843V6.72413H6.4624C6.3242 6.72413 6.2124 6.83593 6.2124 6.97413V9.95386H3.41527C3.2771 9.95386 3.16527 10.0657 3.16527 10.2039V12.9785H0.25C0.1118 12.9785 0 13.0903 0 13.2285C0 13.3667 0.1118 13.4785 0.25 13.4785H3.41527C3.55345 13.4785 3.66527 13.3667 3.66527 13.2285V10.4539H6.4624C6.60058 10.4539 6.7124 10.3421 6.7124 10.2039V7.22413H9.63133C9.76952 7.22413 9.88133 7.11231 9.88133 6.97413V4.39843H12.7392C12.8774 4.39843 12.9892 4.28663 12.9892 4.14843V1.02148H15.75C15.8882 1.02148 16 0.909684 16 0.771484C16 0.633309 15.8882 0.521484 15.75 0.521484Z" fill="#F43838"/>
<path d="M12.4892 3.89843V4.89843H13.4892V3.89843H12.4892ZM9.38133 6.72413V7.72413H10.3813V6.72413H9.38133ZM6.2124 9.95386V10.9539H7.2124V9.95386H6.2124ZM3.16527 12.9785V13.9785H4.16527V12.9785H3.16527ZM3.66527 10.4539V9.45386H2.66527V10.4539H3.66527ZM6.7124 7.22413V6.22413H5.7124V7.22413H6.7124ZM9.88133 4.39843V3.39843H8.88133V4.39843H9.88133ZM12.9892 1.02148V0.0214845H11.9892V1.02148H12.9892ZM15.75 -0.478516H12.7392V1.52148H15.75V-0.478516ZM12.7392 -0.478516C12.0488 -0.478516 11.4892 0.0810173 11.4892 0.771484H13.4892C13.4892 1.1856 13.1534 1.52148 12.7392 1.52148V-0.478516ZM11.4892 0.771484V3.89843H13.4892V0.771484H11.4892ZM12.4892 2.89843H9.63133V4.89843H12.4892V2.89843ZM9.63133 2.89843C8.94086 2.89843 8.38133 3.45798 8.38133 4.14843H10.3813C10.3813 4.56254 10.0454 4.89843 9.63133 4.89843V2.89843ZM8.38133 4.14843V6.72413H10.3813V4.14843H8.38133ZM9.38133 5.72413H6.4624V7.72413H9.38133V5.72413ZM6.4624 5.72413C5.77191 5.72413 5.2124 6.28365 5.2124 6.97413H7.2124C7.2124 7.38822 6.87648 7.72413 6.4624 7.72413V5.72413ZM5.2124 6.97413V9.95386H7.2124V6.97413H5.2124ZM6.2124 8.95386H3.41527V10.9539H6.2124V8.95386ZM3.41527 8.95386C2.72481 8.95386 2.16527 9.5134 2.16527 10.2039H4.16527C4.16527 10.618 3.82938 10.9539 3.41527 10.9539V8.95386ZM2.16527 10.2039V12.9785H4.16527V10.2039H2.16527ZM3.16527 11.9785H0.25V13.9785H3.16527V11.9785ZM0.25 11.9785C-0.440485 11.9785 -1 12.5381 -1 13.2285H1C1 13.6426 0.664085 13.9785 0.25 13.9785V11.9785ZM-1 13.2285C-1 13.9189 -0.44055 14.4785 0.25 14.4785V12.4785C0.66415 12.4785 1 12.8145 1 13.2285H-1ZM0.25 14.4785H3.41527V12.4785H0.25V14.4785ZM3.41527 14.4785C4.10573 14.4785 4.66527 13.919 4.66527 13.2285H2.66527C2.66527 12.8144 3.00116 12.4785 3.41527 12.4785V14.4785ZM4.66527 13.2285V10.4539H2.66527V13.2285H4.66527ZM3.66527 11.4539H6.4624V9.45386H3.66527V11.4539ZM6.4624 11.4539C7.1528 11.4539 7.7124 10.8944 7.7124 10.2039H5.7124C5.7124 9.78972 6.04835 9.45386 6.4624 9.45386V11.4539ZM7.7124 10.2039V7.22413H5.7124V10.2039H7.7124ZM6.7124 8.22413H9.63133V6.22413H6.7124V8.22413ZM9.63133 8.22413C10.3219 8.22413 10.8813 7.66454 10.8813 6.97413H8.88133C8.88133 6.56008 9.21718 6.22413 9.63133 6.22413V8.22413ZM10.8813 6.97413V4.39843H8.88133V6.97413H10.8813ZM9.88133 5.39843H12.7392V3.39843H9.88133V5.39843ZM12.7392 5.39843C13.4296 5.39843 13.9892 4.83898 13.9892 4.14843H11.9892C11.9892 3.73429 12.3252 3.39843 12.7392 3.39843V5.39843ZM13.9892 4.14843V1.02148H11.9892V4.14843H13.9892ZM12.9892 2.02148H15.75V0.0214845H12.9892V2.02148ZM15.75 2.02148C16.4404 2.02148 17 1.46203 17 0.771484H15C15 0.357335 15.336 0.0214845 15.75 0.0214845V2.02148ZM17 0.771484C17 0.0810247 16.4405 -0.478516 15.75 -0.478516V1.52148C15.3359 1.52148 15 1.18559 15 0.771484H17Z" fill="#F43838" mask="url(#path-1-inside-1)"/>
<mask id="path-3-inside-2" fill="white">
<path d="M2.08398 5.11972H4.90456C5.04273 5.11972 5.15456 5.0079 5.15456 4.86972C5.15456 4.73155 5.04273 4.61972 4.90456 4.61972H2.66523L6.26026 1.04697C6.35816 0.949549 6.35866 0.791349 6.26123 0.693449C6.16383 0.595549 6.00563 0.594824 5.90773 0.692474L2.33398 4.24405V2.0875C2.33398 1.94932 2.22218 1.8375 2.08398 1.8375C1.94581 1.8375 1.83398 1.94932 1.83398 2.0875V4.86972C1.83398 5.0079 1.94581 5.11972 2.08398 5.11972Z"/>
</mask>
<path d="M2.08398 5.11972H4.90456C5.04273 5.11972 5.15456 5.0079 5.15456 4.86972C5.15456 4.73155 5.04273 4.61972 4.90456 4.61972H2.66523L6.26026 1.04697C6.35816 0.949549 6.35866 0.791349 6.26123 0.693449C6.16383 0.595549 6.00563 0.594824 5.90773 0.692474L2.33398 4.24405V2.0875C2.33398 1.94932 2.22218 1.8375 2.08398 1.8375C1.94581 1.8375 1.83398 1.94932 1.83398 2.0875V4.86972C1.83398 5.0079 1.94581 5.11972 2.08398 5.11972Z" fill="#F43838"/>
<path d="M2.66523 4.61972L1.96033 3.91042L0.240371 5.61972H2.66523V4.61972ZM6.26026 1.04697L6.96517 1.75627L6.96564 1.7558L6.26026 1.04697ZM6.26123 0.693449L5.55232 1.39874L5.55241 1.39883L6.26123 0.693449ZM5.90773 0.692474L6.61264 1.40178L6.61394 1.40048L5.90773 0.692474ZM2.33398 4.24405H1.33398V6.64768L3.03889 4.95335L2.33398 4.24405ZM2.08398 6.11972H4.90456V4.11972H2.08398V6.11972ZM4.90456 6.11972C5.59502 6.11972 6.15456 5.56018 6.15456 4.86972H4.15456C4.15456 4.45561 4.49045 4.11972 4.90456 4.11972V6.11972ZM6.15456 4.86972C6.15456 4.17926 5.59502 3.61972 4.90456 3.61972V5.61972C4.49045 5.61972 4.15456 5.28383 4.15456 4.86972H6.15456ZM4.90456 3.61972H2.66523V5.61972H4.90456V3.61972ZM3.37014 5.32902L6.96517 1.75627L5.55535 0.337673L1.96033 3.91042L3.37014 5.32902ZM6.96564 1.7558C7.45441 1.2694 7.45766 0.47804 6.97006 -0.0119361L5.55241 1.39883C5.25966 1.10466 5.2619 0.629698 5.55487 0.33815L6.96564 1.7558ZM6.97015 -0.0118462C6.48474 -0.499744 5.69268 -0.505433 5.20153 -0.0155364L6.61394 1.40048C6.31859 1.69508 5.84293 1.69084 5.55232 1.39874L6.97015 -0.0118462ZM5.20283 -0.0168301L1.62908 3.53474L3.03889 4.95335L6.61264 1.40178L5.20283 -0.0168301ZM3.33398 4.24405V2.0875H1.33398V4.24405H3.33398ZM3.33398 2.0875C3.33398 1.3971 2.77453 0.837499 2.08398 0.837499V2.8375C1.66984 2.8375 1.33398 2.50154 1.33398 2.0875H3.33398ZM2.08398 0.837499C1.39353 0.837499 0.833984 1.39704 0.833984 2.0875H2.83398C2.83398 2.50161 2.49809 2.8375 2.08398 2.8375V0.837499ZM0.833984 2.0875V4.86972H2.83398V2.0875H0.833984ZM0.833984 4.86972C0.833984 5.56018 1.39353 6.11972 2.08398 6.11972V4.11972C2.49809 4.11972 2.83398 4.45561 2.83398 4.86972H0.833984Z" fill="#F43838" mask="url(#path-3-inside-2)"/>
</svg>
