<svg width="80" height="81" viewBox="0 0 80 81" fill="none" xmlns="http://www.w3.org/2000/svg">
<g clip-path="url(#clip0)">
<g opacity="0.2">
<path d="M39.3798 16.4521C39.2486 16.4647 39.1242 16.517 39.0235 16.6021C38.9227 16.6871 38.8502 16.8009 38.8157 16.9281L35.0781 30.8733L26.228 25.7783C26.1321 25.7224 26.0216 25.6917 25.9107 25.6901C25.8696 25.6862 25.8283 25.6862 25.7873 25.6901C25.3776 25.7653 25.1338 26.3018 25.3465 26.6598L30.4415 35.4923L16.514 39.2298C16.3686 39.2607 16.2382 39.3406 16.1446 39.4561C16.0511 39.5717 16 39.7158 16 39.8645C16 40.0131 16.0511 40.1573 16.1446 40.2728C16.2382 40.3884 16.3686 40.4683 16.514 40.4992L30.4415 44.2367L25.3465 53.0868C25.2119 53.331 25.2551 53.6654 25.4523 53.8625C25.6495 54.0597 25.9838 54.103 26.228 53.9683L35.0605 48.8557L38.8157 62.8008C38.8532 62.938 38.9348 63.0591 39.0479 63.1454C39.1609 63.2317 39.2993 63.2785 39.4415 63.2785C39.5838 63.2785 39.7221 63.2317 39.8352 63.1454C39.9483 63.0591 40.0299 62.938 40.0674 62.8008L43.8225 48.8557L52.655 53.9683C52.8992 54.103 53.2336 54.0597 53.4308 53.8625C53.6279 53.6654 53.6712 53.331 53.5365 53.0868L48.4415 44.2367L62.3691 40.4992C62.5145 40.4683 62.6449 40.3884 62.7384 40.2728C62.832 40.1573 62.883 40.0131 62.883 39.8645C62.883 39.7158 62.832 39.5717 62.7384 39.4561C62.6449 39.3406 62.5145 39.2607 62.3691 39.2298L48.4415 35.4923L53.5365 26.6598C53.7598 26.2672 53.424 25.69 52.9724 25.6901C52.9314 25.6862 52.89 25.6862 52.849 25.6901C52.7801 25.7086 52.7143 25.7385 52.655 25.7783L43.8049 30.8733L40.0674 16.9281C40.0273 16.7805 39.9363 16.6517 39.8105 16.5646C39.6847 16.4775 39.5322 16.4377 39.3798 16.4521ZM39.4327 19.5902L43.5404 34.84L39.4503 38.9477L35.3426 34.84L39.4327 19.5902ZM27.6736 28.0878L34.7256 32.1603L34.0909 34.5227L31.7461 35.1573L27.6736 28.0878ZM51.2094 28.1054L47.1546 35.1573L44.7922 34.5226L44.1575 32.1602L51.2094 28.1054ZM34.4082 35.792L38.5336 39.8644L34.4082 43.9546L19.2113 39.8644L34.4082 35.792ZM44.4748 35.792L59.6717 39.8644L44.4748 43.9546L40.3671 39.8644L44.4748 35.792ZM39.4503 40.7812L43.5404 44.9066L39.4327 60.1387L35.3426 44.9066L39.4503 40.7812ZM31.7461 44.5892L34.0909 45.2239L34.7256 47.5687L27.6736 51.6588L31.7461 44.5892ZM47.1546 44.5892L51.2094 51.6411L44.1575 47.5687L44.7922 45.2239L47.1546 44.5892Z" fill="#31456A"/>
</g>
<path opacity="0.2" d="M42.9844 10.043C42.8906 10.8451 42.5938 11.4648 42.0938 11.9023C41.5972 12.3364 40.9358 12.5534 40.1094 12.5534C39.2135 12.5534 38.4948 12.2322 37.9531 11.5898C37.4149 10.9475 37.1458 10.0881 37.1458 9.01172V8.28255C37.1458 7.57769 37.2708 6.9579 37.5208 6.42318C37.7743 5.88845 38.1319 5.47873 38.5938 5.19401C39.0556 4.90582 39.5903 4.76172 40.1979 4.76172C41.0035 4.76172 41.6493 4.98741 42.1354 5.4388C42.6215 5.88672 42.9045 6.50825 42.9844 7.30339H41.9792C41.8924 6.69922 41.7031 6.26172 41.4115 5.99089C41.1233 5.72005 40.7188 5.58464 40.1979 5.58464C39.559 5.58464 39.0573 5.82075 38.6927 6.29297C38.3316 6.76519 38.151 7.43707 38.151 8.30859V9.04297C38.151 9.86588 38.3229 10.5204 38.6667 11.0065C39.0104 11.4926 39.4913 11.7357 40.1094 11.7357C40.6649 11.7357 41.0903 11.6107 41.3854 11.3607C41.684 11.1072 41.8819 10.668 41.9792 10.043H42.9844Z" fill="#31456A"/>
<path opacity="0.2" d="M9.60417 38.9023C9.60417 38.4996 9.4566 38.1801 9.16146 37.944C8.86979 37.7044 8.45833 37.5846 7.92708 37.5846C7.48264 37.5846 7.10938 37.7079 6.80729 37.9544C6.50868 38.1975 6.35938 38.4996 6.35938 38.8607H5.35938C5.35938 38.4579 5.46875 38.0968 5.6875 37.7773C5.90972 37.4579 6.21875 37.2096 6.61458 37.0326C7.01042 36.852 7.44792 36.7617 7.92708 36.7617C8.77431 36.7617 9.43229 36.9527 9.90104 37.3346C10.3698 37.7131 10.6042 38.2409 10.6042 38.918C10.6042 39.2687 10.4965 39.5881 10.2813 39.8763C10.066 40.1645 9.76563 40.3919 9.38021 40.5586C10.2726 40.8572 10.7187 41.4492 10.7187 42.3346C10.7187 43.0152 10.4653 43.5551 9.95833 43.9544C9.45139 44.3537 8.77431 44.5534 7.92708 44.5534C7.42361 44.5534 6.96528 44.4648 6.55208 44.2878C6.14236 44.1072 5.82292 43.852 5.59375 43.5221C5.36458 43.1923 5.25 42.7999 5.25 42.3451H6.25C6.25 42.7444 6.40799 43.0777 6.72396 43.3451C7.03993 43.6089 7.44097 43.7409 7.92708 43.7409C8.47222 43.7409 8.90625 43.6141 9.22917 43.3607C9.55556 43.1072 9.71875 42.7721 9.71875 42.3555C9.71875 41.4666 9.1684 41.0135 8.06771 40.9961H7.13021V40.1732H8.0625C8.56944 40.1628 8.95313 40.0482 9.21354 39.8294C9.47396 39.6107 9.60417 39.3016 9.60417 38.9023Z" fill="#31456A"/>
<path opacity="0.2" d="M69.5573 44.4492V36.8659H72.0365C72.8594 36.8659 73.4774 37.036 73.8906 37.3763C74.3073 37.7166 74.5156 38.2201 74.5156 38.8867C74.5156 39.2409 74.4149 39.5551 74.2135 39.8294C74.0122 40.1003 73.7378 40.3103 73.3906 40.4596C73.8003 40.5742 74.1233 40.793 74.3594 41.1159C74.599 41.4353 74.7187 41.8173 74.7187 42.2617C74.7187 42.9423 74.4983 43.477 74.0573 43.8659C73.6163 44.2548 72.9931 44.4492 72.1875 44.4492H69.5573ZM70.5573 40.9023V43.6315H72.2083C72.6736 43.6315 73.0399 43.5117 73.3073 43.2721C73.5781 43.0291 73.7135 42.6957 73.7135 42.2721C73.7135 41.3589 73.217 40.9023 72.224 40.9023H70.5573ZM70.5573 40.1003H72.0677C72.5052 40.1003 72.8542 39.9909 73.1146 39.7721C73.3785 39.5534 73.5104 39.2565 73.5104 38.8815C73.5104 38.4648 73.3889 38.1628 73.1458 37.9753C72.9028 37.7843 72.533 37.6888 72.0365 37.6888H70.5573V40.1003Z" fill="#31456A"/>
<path opacity="0.2" d="M44.3646 72.9023C44.3646 73.6454 44.2396 74.2947 43.9896 74.8503C43.7396 75.4023 43.3854 75.8242 42.9271 76.1159C42.4688 76.4076 41.934 76.5534 41.3229 76.5534C40.7465 76.5534 40.2292 76.4145 39.7708 76.1367C39.316 75.8589 38.9583 75.4614 38.6979 74.944C38.441 74.4266 38.2986 73.8225 38.2708 73.1315H37.1823V76.4492H36.1823V68.8659H37.1823V72.3451H38.2656C38.276 71.6298 38.4063 71.003 38.6563 70.4648C38.9063 69.9232 39.2622 69.5048 39.724 69.2096C40.1858 68.911 40.7153 68.7617 41.3125 68.7617C41.9201 68.7617 42.4549 68.9093 42.9167 69.2044C43.3819 69.4961 43.7396 69.9214 43.9896 70.4805C44.2396 71.036 44.3646 71.6836 44.3646 72.4232V72.9023ZM43.3698 72.4128C43.3698 71.5135 43.1892 70.8242 42.8281 70.3451C42.467 69.8624 41.9618 69.6211 41.3125 69.6211C40.6806 69.6211 40.1823 69.8624 39.8177 70.3451C39.4566 70.8242 39.2708 71.4909 39.2604 72.3451V72.9023C39.2604 73.7739 39.4427 74.4596 39.8073 74.9596C40.1753 75.4562 40.6806 75.7044 41.3229 75.7044C41.9688 75.7044 42.4688 75.4701 42.8229 75.0013C43.1771 74.5291 43.3594 73.8537 43.3698 72.9753V72.4128Z" fill="#31456A"/>
</g>
<defs>
<clipPath id="clip0">
<rect width="80" height="80" fill="white" transform="translate(0 0.449219)"/>
</clipPath>
</defs>
</svg>
