<svg width="16" height="16" viewBox="0 0 16 16" fill="none" xmlns="http://www.w3.org/2000/svg">
<path d="M14.6663 5.33333V5C14.6663 3.8131 13.9524 2.7085 12.656 1.88973C11.4866 1.1512 9.96224 0.7234 8.33301 0.671967V0H7.66634V0.671967C6.03707 0.7234 4.51271 1.1512 3.34334 1.88977C2.04694 2.7085 1.33301 3.8131 1.33301 5V5.33333H7.66634V8.66667H1.33301V11H2.33301V16H2.99967V13.1381L5.13777 11H7.66634V16H8.33301V11H10.8616L12.9997 13.1381V16H13.6663V11H14.6663V8.66667H8.33301V5.33333H14.6663ZM2.99967 12.1953V11H4.19491L2.99967 12.1953ZM12.9997 12.1953L11.8044 11H12.9997V12.1953ZM13.9997 10.3333H1.99967V9.33333H13.9997V10.3333ZM7.99967 1.33333C8.42767 1.33333 8.86431 1.69557 9.19764 2.32713C9.53027 2.95737 9.72951 3.77837 9.76954 4.66667H6.22981C6.26984 3.77837 6.46907 2.95737 6.80171 2.32713C7.13504 1.69557 7.57167 1.33333 7.99967 1.33333ZM13.9748 4.66667H10.4373C10.3818 3.31437 9.99071 2.15307 9.40694 1.43547C10.4962 1.59637 11.4935 1.94407 12.3 2.4534C13.267 3.06413 13.8507 3.84007 13.9748 4.66667ZM3.69931 2.4534C4.50574 1.94407 5.50311 1.59637 6.59237 1.43547C6.00861 2.15307 5.61754 3.31437 5.56204 4.66667H2.02457C2.14864 3.84007 2.73231 3.06413 3.69931 2.4534Z" fill="#F43838"/>
</svg>
